<svg width="259" height="54" viewBox="0 0 259 54" fill="none" xmlns="http://www.w3.org/2000/svg">
<path d="M0.556818 9.7642H16.5881V53H27.5312V9.7642H43.5625V0.636362H0.556818V9.7642ZM56.2955 53.7415C62.0994 53.7415 65.858 51.2102 67.7756 47.554H68.0824V53H78.4119V26.5114C78.4119 17.1534 70.4858 13.2159 61.7415 13.2159C52.3324 13.2159 46.1449 17.7159 44.6364 24.875L54.7102 25.6932C55.4517 23.0852 57.7784 21.1676 61.6903 21.1676C65.3977 21.1676 67.5199 23.0341 67.5199 26.2557V26.4091C67.5199 28.9403 64.8352 29.2727 58.0085 29.9375C50.2358 30.6534 43.2557 33.2614 43.2557 42.0312C43.2557 49.804 48.804 53.7415 56.2955 53.7415ZM59.4148 46.2244C56.0653 46.2244 53.6619 44.6648 53.6619 41.6733C53.6619 38.6051 56.1932 37.0966 60.0284 36.5597C62.4062 36.2273 66.2926 35.6648 67.5966 34.7955V38.9631C67.5966 43.0795 64.196 46.2244 59.4148 46.2244ZM119.538 24.9261C118.567 17.6903 112.737 13.2159 102.817 13.2159C92.7685 13.2159 86.1463 17.8693 86.1719 25.4375C86.1463 31.3182 89.8537 35.1278 97.5241 36.6619L104.325 38.017C107.751 38.7074 109.311 39.9602 109.362 41.929C109.311 44.2557 106.78 45.9176 102.97 45.9176C99.0838 45.9176 96.5014 44.2557 95.8366 41.0597L85.1236 41.6222C86.1463 49.1392 92.5384 53.767 102.945 53.767C113.121 53.767 120.408 48.5767 120.433 40.8295C120.408 35.1534 116.7 31.7528 109.081 30.1932L101.973 28.7614C98.3168 27.9688 96.9616 26.7159 96.9872 24.8239C96.9616 22.4716 99.6207 20.9375 102.996 20.9375C106.78 20.9375 109.03 23.0085 109.567 25.5398L119.538 24.9261ZM127.292 53H138.184V40.5227L141.124 37.1733L151.837 53H164.596L149.281 30.7301L163.854 13.7273H151.352L138.772 28.6335H138.184V0.636362H127.292V53ZM187.965 53C203.92 53 213.585 43.1307 213.585 26.767C213.585 10.4545 203.92 0.636362 188.119 0.636362H169.403V53H187.965ZM180.474 43.5142V10.1222H187.531C197.349 10.1222 202.539 15.1335 202.539 26.767C202.539 38.4517 197.349 43.5142 187.505 43.5142H180.474ZM239.325 53.767C251.24 53.767 258.655 45.6108 258.655 33.517C258.655 21.3466 251.24 13.2159 239.325 13.2159C227.411 13.2159 219.996 21.3466 219.996 33.517C219.996 45.6108 227.411 53.767 239.325 53.767ZM239.376 45.3295C233.879 45.3295 231.067 40.2926 231.067 33.4403C231.067 26.5881 233.879 21.5256 239.376 21.5256C244.771 21.5256 247.584 26.5881 247.584 33.4403C247.584 40.2926 244.771 45.3295 239.376 45.3295Z" fill="#5E5E5E"/>
</svg>
